<?xml version="1.0" encoding="UTF-8" standalone="no"?>
<svg
   xmlns:dc="http://purl.org/dc/elements/1.1/"
   xmlns:cc="http://creativecommons.org/ns#"
   xmlns:rdf="http://www.w3.org/1999/02/22-rdf-syntax-ns#"
   xmlns:svg="http://www.w3.org/2000/svg"
   xmlns="http://www.w3.org/2000/svg"
   xmlns:sodipodi="http://sodipodi.sourceforge.net/DTD/sodipodi-0.dtd"
   xmlns:inkscape="http://www.inkscape.org/namespaces/inkscape"
   sodipodi:docname="logo_cicle.svg"
   inkscape:version="1.0 (4035a4f, 2020-05-01)"
   id="svg8"
   version="1.1"
   viewBox="0 0 126.06372 126.06372"
   height="126.06372mm"
   width="126.06372mm">
  <defs
     id="defs2" />
  <sodipodi:namedview
     inkscape:window-maximized="0"
     inkscape:window-y="0"
     inkscape:window-x="0"
     inkscape:window-height="900"
     inkscape:window-width="1440"
     fit-margin-bottom="0"
     fit-margin-right="0"
     fit-margin-left="0"
     fit-margin-top="0"
     showgrid="false"
     inkscape:document-rotation="0"
     inkscape:current-layer="layer1"
     inkscape:document-units="mm"
     inkscape:cy="535.72867"
     inkscape:cx="392.06664"
     inkscape:zoom="0.61647026"
     inkscape:pageshadow="2"
     inkscape:pageopacity="0.0"
     borderopacity="1.0"
     bordercolor="#666666"
     pagecolor="#ffffff"
     id="base" />
  <metadata
     id="metadata5">
    <rdf:RDF>
      <cc:Work
         rdf:about="">
        <dc:format>image/svg+xml</dc:format>
        <dc:type
           rdf:resource="http://purl.org/dc/dcmitype/StillImage" />
        <dc:title></dc:title>
      </cc:Work>
    </rdf:RDF>
  </metadata>
  <g
     transform="translate(-1.2657013,-0.50627899)"
     id="layer1"
     inkscape:groupmode="layer"
     inkscape:label="Ebene 1">
    <circle
       r="63.03186"
       cy="63.538139"
       cx="64.297562"
       id="path904"
       style="fill:#607d8b;fill-opacity:1;stroke-width:0.264583" />
    <g
       transform="translate(1.0534736,-0.5736084)"
       id="g981">
      <path
         d="m 34.152873,31.295118 c -1.662001,0 -3.000333,0.704154 -3.000333,1.579232 0,0.875077 1.338332,1.579748 3.000333,1.579748 h 2.062924 v -3.15898 z"
         style="fill:#ffffff;fill-opacity:1;stroke-width:0.264583"
         id="path870" />
      <path
         id="path872"
         style="fill:#ffffff;fill-opacity:1;stroke-width:0.264583"
         d="m 34.152873,36.511192 c -1.662001,0 -3.000333,0.704154 -3.000333,1.579232 0,0.875077 1.338332,1.579748 3.000333,1.579748 h 2.062924 v -3.15898 z" />
      <path
         d="m 34.152873,41.727266 c -1.662001,0 -3.000333,0.704154 -3.000333,1.579232 0,0.875077 1.338332,1.579748 3.000333,1.579748 h 2.062924 v -3.15898 z"
         style="fill:#ffffff;fill-opacity:1;stroke-width:0.264583"
         id="path874" />
      <path
         id="path876"
         style="fill:#ffffff;fill-opacity:1;stroke-width:0.264583"
         d="m 34.152873,46.943339 c -1.662001,0 -3.000333,0.704154 -3.000333,1.579232 0,0.875077 1.338332,1.579748 3.000333,1.579748 h 2.062924 v -3.15898 z" />
      <path
         d="m 34.152873,52.159413 c -1.662001,0 -3.000333,0.704154 -3.000333,1.579232 0,0.875077 1.338332,1.579748 3.000333,1.579748 h 2.062924 v -3.15898 z"
         style="fill:#ffffff;fill-opacity:1;stroke-width:0.264583"
         id="path878" />
      <path
         id="path880"
         style="fill:#ffffff;fill-opacity:1;stroke-width:0.264583"
         d="m 34.152873,57.375487 c -1.662001,0 -3.000333,0.704154 -3.000333,1.579232 0,0.875077 1.338332,1.579748 3.000333,1.579748 h 2.062924 v -3.15898 z" />
      <path
         d="m 34.152873,62.591561 c -1.662001,0 -3.000333,0.704154 -3.000333,1.579232 0,0.875077 1.338332,1.579748 3.000333,1.579748 h 2.062924 v -3.15898 z"
         style="fill:#ffffff;fill-opacity:1;stroke-width:0.264583"
         id="path882" />
      <path
         id="path884"
         style="fill:#ffffff;fill-opacity:1;stroke-width:0.264583"
         d="m 34.152873,67.807634 c -1.662001,0 -3.000333,0.704154 -3.000333,1.579232 0,0.875077 1.338332,1.579748 3.000333,1.579748 h 2.062924 v -3.15898 z" />
      <path
         d="m 34.152873,73.023708 c -1.662001,0 -3.000333,0.704154 -3.000333,1.579232 0,0.875077 1.338332,1.579748 3.000333,1.579748 h 2.062924 v -3.15898 z"
         style="fill:#ffffff;fill-opacity:1;stroke-width:0.264583"
         id="path886" />
      <path
         id="path888"
         style="fill:#ffffff;fill-opacity:1;stroke-width:0.264583"
         d="m 34.152873,78.239782 c -1.662001,0 -3.000333,0.704154 -3.000333,1.579232 0,0.875077 1.338332,1.579748 3.000333,1.579748 h 2.062924 v -3.15898 z" />
      <path
         d="m 34.152873,83.455856 c -1.662001,0 -3.000333,0.704154 -3.000333,1.579232 0,0.875077 1.338332,1.579748 3.000333,1.579748 h 2.062924 v -3.15898 z"
         style="fill:#ffffff;fill-opacity:1;stroke-width:0.264583"
         id="path890" />
      <path
         id="path892"
         style="fill:#ffffff;fill-opacity:1;stroke-width:0.264583"
         d="m 34.152873,88.671929 c -1.662001,0 -3.000333,0.704154 -3.000333,1.579232 0,0.875077 1.338332,1.579748 3.000333,1.579748 h 2.062924 v -3.15898 z" />
      <path
         d="m 34.152873,93.888003 c -1.662001,0 -3.000333,0.704154 -3.000333,1.579232 0,0.875077 1.338332,1.579748 3.000333,1.579748 h 2.062924 v -3.15898 z"
         style="fill:#ffffff;fill-opacity:1;stroke-width:0.264583"
         id="path894" />
      <path
         id="path896"
         style="fill:#ffffff;fill-opacity:1;stroke-width:0.264583"
         d="m 34.152873,99.104077 c -1.662001,0 -3.000333,0.704154 -3.000333,1.579233 0,0.87508 1.338332,1.57976 3.000333,1.57976 h 2.062924 v -3.158993 z" />
      <g
         id="g957">
        <path
           d="m 34.152873,26.079046 c -1.662001,0 -3.000333,0.704154 -3.000333,1.579232 0,0.875077 1.338332,1.579748 3.000333,1.579748 h 2.062924 v -3.15898 z"
           style="fill:#ffffff;fill-opacity:1;stroke-width:0.264583"
           id="rect863" />
        <rect
           ry="3"
           rx="3"
           y="22.904045"
           x="36.215797"
           height="82.415405"
           width="59.119839"
           id="rect847"
           style="fill:#303030;fill-opacity:1;stroke-width:0.264583" />
        <rect
           ry="3.0000045"
           rx="3.0000045"
           y="41.008678"
           x="53.371857"
           height="4.55652"
           width="24.807718"
           id="rect898"
           style="fill:#ffffff;fill-opacity:1;stroke-width:0.264583" />
        <rect
           style="fill:#ffffff;fill-opacity:1;stroke-width:0.264583"
           id="rect900"
           width="24.807718"
           height="4.55652"
           x="53.371857"
           y="48.152428"
           rx="3.0000045"
           ry="3.0000045" />
        <rect
           ry="3.0000045"
           rx="3.0000045"
           y="55.296177"
           x="53.371857"
           height="4.55652"
           width="24.807718"
           id="rect902"
           style="fill:#ffffff;fill-opacity:1;stroke-width:0.264583" />
      </g>
    </g>
  </g>
</svg>
